<?xml version="1.0" standalone="no"?>
<!DOCTYPE svg PUBLIC "-//W3C//DTD SVG 20010904//EN"
 "http://www.w3.org/TR/2001/REC-SVG-20010904/DTD/svg10.dtd">
<svg version="1.0" xmlns="http://www.w3.org/2000/svg"
 width="288.000000pt" height="288.000000pt" viewBox="0 0 288.000000 288.000000"
 preserveAspectRatio="xMidYMid meet">
<metadata>
Created by potrace 1.14, written by Peter Selinger 2001-2017
</metadata>
<g transform="translate(0.000000,288.000000) scale(0.100000,-0.100000)"
fill="#000000" stroke="none">
<path d="M427 2783 c-1 0 -22 -4 -47 -7 -74 -9 -104 -18 -129 -37 -13 -10 -28
-16 -34 -12 -5 3 -7 2 -4 -4 4 -5 -4 -15 -16 -22 -24 -13 -28 -19 -63 -89 -11
-23 -24 -39 -27 -36 -6 7 -3 -2259 3 -2283 2 -7 7 -10 11 -8 4 3 10 -7 13 -21
6 -24 106 -134 106 -118 0 4 8 0 18 -8 9 -9 32 -19 50 -23 21 -4 30 -11 25
-18 -4 -7 0 -6 10 1 9 8 21 11 26 7 11 -6 2105 -8 2151 -1 57 8 115 32 146 62
19 17 36 29 38 27 2 -3 7 5 11 16 3 12 10 21 15 21 5 0 11 14 15 30 4 17 10
28 14 26 4 -3 9 10 11 27 6 42 6 2224 0 2260 -2 15 -8 27 -12 27 -3 0 -10 10
-14 22 -6 21 -104 126 -104 112 0 -4 -9 1 -20 11 -11 10 -20 15 -20 12 0 -3
-11 0 -24 7 -13 6 -66 13 -117 14 -106 3 -2030 8 -2032 5z"/>
</g>
</svg>
